<svg id="visual" viewBox="0 0 960 120" width="960" height="120" xmlns="http://www.w3.org/2000/svg" xmlns:xlink="http://www.w3.org/1999/xlink" version="1.1"><path d="M0 23L80 23L80 18L160 18L160 18L240 18L240 11L320 11L320 14L400 14L400 24L480 24L480 19L560 19L560 19L640 19L640 20L720 20L720 15L800 15L800 12L880 12L880 12L960 12L960 24L960 0L960 0L880 0L880 0L800 0L800 0L720 0L720 0L640 0L640 0L560 0L560 0L480 0L480 0L400 0L400 0L320 0L320 0L240 0L240 0L160 0L160 0L80 0L80 0L0 0Z" fill="#0f0f24"></path><path d="M0 35L80 35L80 38L160 38L160 54L240 54L240 43L320 43L320 48L400 48L400 41L480 41L480 38L560 38L560 32L640 32L640 51L720 51L720 48L800 48L800 50L880 50L880 45L960 45L960 55L960 22L960 10L880 10L880 10L800 10L800 13L720 13L720 18L640 18L640 17L560 17L560 17L480 17L480 22L400 22L400 12L320 12L320 9L240 9L240 16L160 16L160 16L80 16L80 21L0 21Z" fill="#0d0c21"></path><path d="M0 59L80 59L80 90L160 90L160 101L240 101L240 72L320 72L320 81L400 81L400 62L480 62L480 68L560 68L560 87L640 87L640 80L720 80L720 81L800 81L800 83L880 83L880 96L960 96L960 91L960 53L960 43L880 43L880 48L800 48L800 46L720 46L720 49L640 49L640 30L560 30L560 36L480 36L480 39L400 39L400 46L320 46L320 41L240 41L240 52L160 52L160 36L80 36L80 33L0 33Z" fill="#09081d"></path><path d="M0 121L80 121L80 121L160 121L160 121L240 121L240 121L320 121L320 121L400 121L400 121L480 121L480 121L560 121L560 121L640 121L640 121L720 121L720 121L800 121L800 121L880 121L880 121L960 121L960 121L960 89L960 94L880 94L880 81L800 81L800 79L720 79L720 78L640 78L640 85L560 85L560 66L480 66L480 60L400 60L400 79L320 79L320 70L240 70L240 99L160 99L160 88L80 88L80 57L0 57Z" fill="#05051a"></path></svg>