<svg id="visual" viewBox="0 0 960 120" width="960" height="120" xmlns="http://www.w3.org/2000/svg" xmlns:xlink="http://www.w3.org/1999/xlink" version="1.1"><path d="M0 14L96 14L96 14L192 14L192 14L288 14L288 15L384 15L384 14L480 14L480 15L576 15L576 15L672 15L672 15L768 15L768 15L864 15L864 14L960 14L960 14L960 0L960 0L864 0L864 0L768 0L768 0L672 0L672 0L576 0L576 0L480 0L480 0L384 0L384 0L288 0L288 0L192 0L192 0L96 0L96 0L0 0Z" fill="#05051a"></path><path d="M0 51L96 51L96 50L192 50L192 51L288 51L288 53L384 53L384 51L480 51L480 49L576 49L576 49L672 49L672 47L768 47L768 51L864 51L864 49L960 49L960 51L960 12L960 12L864 12L864 13L768 13L768 13L672 13L672 13L576 13L576 13L480 13L480 12L384 12L384 13L288 13L288 12L192 12L192 12L96 12L96 12L0 12Z" fill="#c53762"></path><path d="M0 84L96 84L96 84L192 84L192 85L288 85L288 86L384 86L384 84L480 84L480 85L576 85L576 81L672 81L672 81L768 81L768 83L864 83L864 83L960 83L960 85L960 49L960 47L864 47L864 49L768 49L768 45L672 45L672 47L576 47L576 47L480 47L480 49L384 49L384 51L288 51L288 49L192 49L192 48L96 48L96 49L0 49Z" fill="#d84a64"></path><path d="M0 104L96 104L96 104L192 104L192 104L288 104L288 105L384 105L384 105L480 105L480 104L576 104L576 104L672 104L672 103L768 103L768 105L864 105L864 105L960 105L960 104L960 83L960 81L864 81L864 81L768 81L768 79L672 79L672 79L576 79L576 83L480 83L480 82L384 82L384 84L288 84L288 83L192 83L192 82L96 82L96 82L0 82Z" fill="#ea5e66"></path><path d="M0 121L96 121L96 121L192 121L192 121L288 121L288 121L384 121L384 121L480 121L480 121L576 121L576 121L672 121L672 121L768 121L768 121L864 121L864 121L960 121L960 121L960 102L960 103L864 103L864 103L768 103L768 101L672 101L672 102L576 102L576 102L480 102L480 103L384 103L384 103L288 103L288 102L192 102L192 102L96 102L96 102L0 102Z" fill="#fa7268"></path></svg>