<svg id="visual" viewBox="0 0 960 540" width="960" height="540" xmlns="http://www.w3.org/2000/svg" xmlns:xlink="http://www.w3.org/1999/xlink" version="1.1"><path d="M0 93L96 93L96 87L192 87L192 93L288 93L288 98L384 98L384 98L480 98L480 98L576 98L576 87L672 87L672 93L768 93L768 93L864 93L864 87L960 87L960 104L960 0L960 0L864 0L864 0L768 0L768 0L672 0L672 0L576 0L576 0L480 0L480 0L384 0L384 0L288 0L288 0L192 0L192 0L96 0L96 0L0 0Z" fill="#b0235f"></path><path d="M0 158L96 158L96 152L192 152L192 152L288 152L288 158L384 158L384 163L480 163L480 163L576 163L576 147L672 147L672 152L768 152L768 158L864 158L864 152L960 152L960 163L960 102L960 85L864 85L864 91L768 91L768 91L672 91L672 85L576 85L576 96L480 96L480 96L384 96L384 96L288 96L288 91L192 91L192 85L96 85L96 91L0 91Z" fill="#c53762"></path><path d="M0 233L96 233L96 228L192 228L192 228L288 228L288 228L384 228L384 233L480 233L480 233L576 233L576 222L672 222L672 222L768 222L768 233L864 233L864 228L960 228L960 233L960 161L960 150L864 150L864 156L768 156L768 150L672 150L672 145L576 145L576 161L480 161L480 161L384 161L384 156L288 156L288 150L192 150L192 150L96 150L96 156L0 156Z" fill="#d84a64"></path><path d="M0 379L96 379L96 368L192 368L192 374L288 374L288 384L384 384L384 368L480 368L480 390L576 390L576 374L672 374L672 390L768 390L768 374L864 374L864 390L960 390L960 395L960 231L960 226L864 226L864 231L768 231L768 220L672 220L672 220L576 220L576 231L480 231L480 231L384 231L384 226L288 226L288 226L192 226L192 226L96 226L96 231L0 231Z" fill="#ea5e66"></path><path d="M0 541L96 541L96 541L192 541L192 541L288 541L288 541L384 541L384 541L480 541L480 541L576 541L576 541L672 541L672 541L768 541L768 541L864 541L864 541L960 541L960 541L960 393L960 388L864 388L864 372L768 372L768 388L672 388L672 372L576 372L576 388L480 388L480 366L384 366L384 382L288 382L288 372L192 372L192 366L96 366L96 377L0 377Z" fill="#fa7268"></path></svg>