<svg class="h-5 md:h-full" width="54" height="31" viewBox="0 0 54 31" fill="none" xmlns="http://www.w3.org/2000/svg">
                    <path d="M53.4993 19.6402C53.4993 22.8654 52.6003 25.4017 50.7966 27.2647C48.9928 29.1221 46.5051 30.0539 43.3443 30.0539C39.7639 30.0539 36.7482 28.8584 34.3091 26.4736L21.1497 11.1495C20.3151 9.95397 19.4211 9.09783 18.4627 8.5704C17.5044 8.04296 16.4167 7.77861 15.1946 7.77861C13.0843 7.77861 11.372 8.47829 10.0528 9.87826C8.73356 11.2782 8.07679 13.1356 8.07679 15.4353C8.07679 16.9646 8.38908 18.316 9.01368 19.4951C9.63828 20.68 10.5001 21.5948 11.5928 22.2465C12.6912 22.8982 13.9619 23.2263 15.4047 23.2263C16.6539 23.2263 17.7795 22.9519 18.7757 22.4131C19.7769 21.8692 20.7195 21.0024 21.6078 19.8068L26.3945 24.3462C25.0916 26.2092 23.4494 27.625 21.462 28.5947C19.4753 29.5637 17.235 30.0539 14.7366 30.0539C11.8773 30.0539 9.3468 29.435 7.13926 28.2016C4.93173 26.9631 3.20305 25.2509 1.95386 23.0597C0.704674 20.8629 0.0800781 18.3374 0.0800781 15.4788C0.0800781 12.6202 0.704674 10.0997 1.95386 7.92435C3.20305 5.74395 4.91533 4.03672 7.09573 2.80394C9.2774 1.56484 11.7808 0.945923 14.613 0.945923C17.0842 0.945923 19.3189 1.41973 21.3163 2.3623C23.3137 3.30992 24.9131 4.65627 26.103 6.40072L38.3848 21.1431C39.5532 22.5001 40.8996 23.184 42.4282 23.184C43.5102 23.184 44.3557 22.8503 44.9645 22.1828C45.5783 21.5153 45.8799 20.5891 45.8799 19.3936L45.8742 6.5515C45.8749 3.46008 48.384 0.948446 51.4798 0.948446H53.4937L53.4993 19.6409V19.6402Z" fill="#DB3EDB"></path>
                    <path d="M15.725 13.8165H14.1421C13.6494 13.8165 13.25 14.2159 13.25 14.7086V16.2916C13.25 16.7843 13.6494 17.1837 14.1421 17.1837H15.725C16.2177 17.1837 16.6171 16.7843 16.6171 16.2916V14.7086C16.6171 14.2159 16.2177 13.8165 15.725 13.8165Z" fill="#DB3EDB"></path>
                    <path d="M19.6664 13.8165H18.0835C17.5908 13.8165 17.1914 14.2159 17.1914 14.7086V16.2916C17.1914 16.7843 17.5908 17.1837 18.0835 17.1837H19.6664C20.1591 17.1837 20.5585 16.7843 20.5585 16.2916V14.7086C20.5585 14.2159 20.1591 13.8165 19.6664 13.8165Z" fill="#DB3EDB"></path>
                    <path d="M11.767 13.8165H10.1841C9.6914 13.8165 9.29199 14.2159 9.29199 14.7086V16.2916C9.29199 16.7843 9.6914 17.1837 10.1841 17.1837H11.767C12.2597 17.1837 12.6591 16.7843 12.6591 16.2916V14.7086C12.6591 14.2159 12.2597 13.8165 11.767 13.8165Z" fill="#DB3EDB"></path>
                    <path d="M15.725 9.70105H14.1421C13.6494 9.70105 13.25 10.1005 13.25 10.5931V12.1761C13.25 12.6688 13.6494 13.0682 14.1421 13.0682H15.725C16.2177 13.0682 16.6171 12.6688 16.6171 12.1761V10.5931C16.6171 10.1005 16.2177 9.70105 15.725 9.70105Z" fill="#DB3EDB"></path>
                    <path d="M15.725 17.9319H14.1421C13.6494 17.9319 13.25 18.3313 13.25 18.824V20.4069C13.25 20.8996 13.6494 21.299 14.1421 21.299H15.725C16.2177 21.299 16.6171 20.8996 16.6171 20.4069V18.824C16.6171 18.3313 16.2177 17.9319 15.725 17.9319Z" fill="#DB3EDB"></path>
                    <path d="M40.3385 19.1921C42.3776 19.1921 44.0306 17.5391 44.0306 15.5C44.0306 13.461 42.3776 11.808 40.3385 11.808C38.2995 11.808 36.6465 13.461 36.6465 15.5C36.6465 17.5391 38.2995 19.1921 40.3385 19.1921Z" fill="#DB3EDB"></path>
                    </svg>