<svg xmlns="http://www.w3.org/2000/svg" viewBox="52 42 88 66">
<path fill="#4285f4" d="M58 108h14V74L52 59v43c0 3.32 2.69 6 6 6"/>
<path fill="#34a853" d="M120 108h14c3.32 0 6-2.69 6-6V59l-20 15"/>
<path fill="#fbbc04" d="M120 48v26l20-15v-8c0-7.42-8.47-11.65-14.4-7.2"/>
<path fill="#ea4335" d="M72 74V48l24 18 24-18v26L96 92"/>
<path fill="#c5221f" d="M52 51v8l20 15V48l-5.6-4.2c-5.94-4.45-14.4-.22-14.4 7.2"/>
<path fill="#ffffff" d="M 120,108 V 74 L 96,92 72,74 v 34 z"/>
  <path fill="#ffffff" d="m 61.035156,41.982422 c 1.825018,4.97e-4 3.694612,0.5668 5.365235,1.818359 L 72,48 l 24,18 24,-18 5.59961,-4.199219 c 1.66781,-1.251559 3.53662,-1.817862 5.36133,-1.818359 z"/>
</svg>