<?xml version="1.0" encoding="UTF-8" standalone="no"?>
<svg
   version="1.1"
   viewBox="0 0 144 156"
   id="svg35"
   sodipodi:docname="TuwaiqAcademy.svg"
   width="144"
   height="156"
   inkscape:version="1.3.2 (091e20e, 2023-11-25, custom)"
   inkscape:export-filename="TuwaiqAcademy.svg"
   inkscape:export-xdpi="96"
   inkscape:export-ydpi="96"
   xmlns:inkscape="http://www.inkscape.org/namespaces/inkscape"
   xmlns:sodipodi="http://sodipodi.sourceforge.net/DTD/sodipodi-0.dtd"
   xmlns:xlink="http://www.w3.org/1999/xlink"
   xmlns="http://www.w3.org/2000/svg"
   xmlns:svg="http://www.w3.org/2000/svg">
  <sodipodi:namedview
     id="namedview35"
     pagecolor="#ffffff"
     bordercolor="#000000"
     borderopacity="0.25"
     inkscape:showpageshadow="2"
     inkscape:pageopacity="0.0"
     inkscape:pagecheckerboard="0"
     inkscape:deskcolor="#d1d1d1"
     inkscape:zoom="4.5990225"
     inkscape:cx="105.67463"
     inkscape:cy="86.648848"
     inkscape:window-width="1920"
     inkscape:window-height="1009"
     inkscape:window-x="1912"
     inkscape:window-y="-8"
     inkscape:window-maximized="1"
     inkscape:current-layer="svg35" />
  <defs
     id="defs2">
    <style
       id="style1">
      .cls-1 {
        fill: url(#linear-gradient);
      }

      .cls-1, .cls-2, .cls-3 {
        stroke-width: 0px;
      }

      .cls-2 {
        fill: #474747;
      }

      .cls-3 {
        fill: url(#linear-gradient-2);
      }
    </style>
    <linearGradient
       id="linear-gradient"
       x1="705"
       y1="562.09998"
       x2="824.40002"
       y2="482.60001"
       gradientUnits="userSpaceOnUse">
      <stop
         offset="0"
         stop-color="#bd6af6"
         id="stop1" />
      <stop
         offset="1"
         stop-color="#6de9d2"
         id="stop2" />
    </linearGradient>
    <linearGradient
       id="linear-gradient-2"
       x1="723.59998"
       y1="547.90002"
       x2="808.90002"
       y2="491.10001"
       xlink:href="#linear-gradient"
       gradientTransform="translate(-702,-422)" />
    <linearGradient
       inkscape:collect="always"
       xlink:href="#linear-gradient"
       id="linearGradient35"
       gradientUnits="userSpaceOnUse"
       x1="705"
       y1="562.09998"
       x2="824.40002"
       y2="482.60001"
       gradientTransform="translate(-702,-422)" />
  </defs>
  <!-- Generator: Adobe Illustrator 28.6.0, SVG Export Plug-In . SVG Version: 1.0.2 Build 62)  -->
  <path
     class="cls-1"
     d="M 74.9,2.3 72.1,0 H 71.9 L 69.1,2.3 C 28.1,34.8 3,83.9 0.2,137.1 v 3.4 l 2.8,1.3 c 21.9,9.6 45.1,14.2 68.9,14.2 23.8,0 47,-4.9 68.9,-14.2 l 3,-1.3 v -3.4 C 140.8,84 115.7,34.8 74.9,2.3 Z m -3,144.2 C 50.4,146.5 29.4,142.2 9.8,134.2 13.2,86.4 35.7,42.1 71.9,12 c 36.4,30.2 58.9,74.4 62.1,122.2 -19.8,8.1 -40.6,12.3 -62.1,12.3 z"
     id="path32"
     style="fill:url(#linearGradient35)" />
  <path
     class="cls-3"
     d="m 72.3,25.1 -0.4,1.5 C 67.6,30.4 63.8,34.7 60,38.9 l 2.1,1.9 2.6,2.6 2.6,2.3 2.6,2.6 2.3,2.6 2.3,2.6 2.3,2.8 2.3,2.8 2.1,2.8 2.1,2.8 2.1,2.8 2.1,2.8 2.1,3 1.9,3 1.9,3 1.9,3 1.9,3.2 1.7,3 1.7,3.2 1.7,3 1.5,3.2 1.5,3.2 1.5,3.2 1.5,3.2 1.3,3.2 1.3,3.2 1.3,3.4 0.9,2.6 -7.9,-4.3 v -0.9 c -0.2,0 -2.3,-5.1 -2.3,-5.1 l -2.3,-5.1 -2.3,-5.1 -2.6,-4.9 -2.8,-4.9 -2.8,-4.9 -3,-4.7 -3.2,-4.7 -3.2,-4.5 -3.4,-4.5 -3.4,-4.3 -3.6,-4.3 -3.6,-4 -3.8,-4 -4,-3.8 -2.3,-2.1 c -3.8,4.7 -7.2,9.6 -10.4,14.5 l 1.1,0.9 4.5,3.8 4.3,4 4.3,4 4,4.3 4,4.3 3.8,4.5 3.8,4.5 3.6,4.7 3.6,4.7 3.4,4.7 3,4.3 c -1.1,-0.4 -2.1,-0.9 -3.4,-1.1 L 83,102.1 78.7,97.2 74.2,92.3 69.5,87.4 64.8,82.7 60.1,78.2 55.2,73.7 50.1,69.4 45,65.1 42.4,63.2 c -2.6,4 -4.7,8.5 -6.8,13 l 4.3,3 5.3,3.8 4.9,3.8 4.9,3.8 4.7,4 4.7,4.3 4.5,4.3 0.4,0.4 c -2.6,0 -5.1,0.4 -7.7,1.1 l -0.4,-0.4 -4.5,-4 -4.7,-4 -4.7,-3.8 -4.9,-3.8 -4.9,-3.6 -4.3,-3 c -1.5,3.6 -2.8,7 -4,10.6 l 2.1,1.1 2.3,1.1 2.1,1.1 2.1,1.3 2.1,1.3 2.1,1.3 2.1,1.3 2.1,1.3 2.1,1.5 2.1,1.5 2.1,1.5 h 0.4 c -1.5,0.9 -3,1.7 -4.5,2.3 l -1.1,-0.6 -3.8,-2.1 -4,-2.1 -4,-1.9 -3.8,-1.9 -4,-1.9 -0.9,-0.4 c -1.1,3.8 -2.1,7.7 -3,11.5 l 2.8,1.1 4.3,1.7 4.3,1.9 3,1.3 -6.4,4 -2.1,-1.1 -5.5,-2.3 -1.5,-0.6 c -0.6,3.6 -1.3,7.2 -1.7,10.6 7,2.6 14,4.5 21.3,5.7 7.9,1.7 17.2,3 27.2,3 10,0 20.8,-1.1 28.9,-2.6 h 0.9 c 0.4,0 0.9,0 1.3,-0.2 2.1,-0.4 4,-0.9 6.2,-1.3 4.9,-1.1 8.7,-2.3 11.5,-3.2 1.5,-0.4 3,-0.9 4.5,-1.5 C 118.1,87.7 100.3,52.2 72.2,26.1 Z m 8.3,83.9 c 2.6,-1.7 2.8,-2.1 2.8,-1.1 l -1.9,3.4 c -0.6,1.7 -3.4,-0.6 -0.9,-2.3 z m -20.4,4.7 c 1.1,-1.7 2.6,-3.2 4,-4.5 0,0 0.9,-1.1 1.3,-1.1 v 0.2 c -0.6,1.1 -4.9,8.7 -4.9,10.2 0,1.5 3.4,0.4 4.3,0 0.4,-0.4 0.4,-1.3 0.4,-1.9 0,-1.3 -0.6,-2.6 0.4,-3.4 0.9,-0.6 2.3,-1.3 3.2,-0.6 2.3,1.5 -1.1,4.9 -2.1,6.2 -1.3,1.5 -2.6,2.6 -4.3,3.6 -0.9,0.6 -3.4,2.3 -4.5,1.5 0,0 -0.2,-0.4 -0.2,-0.6 -0.8,-3.6 0.6,-6.4 2.6,-9.4 z m 1.3,17.9 v -0.2 c -1.1,1.3 -5.1,1.1 -5.1,1.1 0,0 3.4,-2.8 5.3,-4.3 1.9,-1.5 5.3,-5.7 6.6,-7.2 1.3,-1.5 3.6,-4.5 4.5,-5.3 0.6,-0.9 2.8,-3.2 2.8,-3.2 0,0 1.3,2.3 -1.9,6.2 -1.3,1.5 -4.5,4.5 -6.2,6.4 -1.7,1.9 -4.9,5.3 -6,6.6 z m 27.6,-18.9 v -0.4 c -0.2,0 -0.6,0 -0.9,0.2 -0.4,0 -0.4,0.4 -0.2,0.9 0,1.1 0,2.1 -0.2,3 0,0.4 -0.2,1.1 -0.6,1.5 -0.6,0.9 -1.9,1.1 -2.6,1.9 -0.9,0.9 -1.5,1.7 -2.3,2.6 -0.4,0.6 -0.9,2.3 -1.1,3.2 -0.4,2.6 -6.6,4.9 -9.8,4.9 -3.2,0 -1.1,-2.6 -0.4,-3.2 h 0.2 l 6,-0.6 c 2.6,-0.2 3.4,-3.8 2.3,-4.7 -1.1,-1.1 -2.1,-1.3 -2.3,-3.2 0,-0.9 1.3,-4.5 4.5,-2.8 1.7,0.9 3.6,0.9 3.6,0.9 v -0.6 l -0.2,-3.2 c -2.1,0.4 -1.5,-1.1 -1.3,-1.7 0.2,-0.6 1.1,-0.4 2.8,-1.3 1.7,-0.6 2.3,-1.1 2.6,-1.1 l 0.4,3.2 c 0,0.2 0,0.4 -0.4,0.6 z"
     id="path33"
     style="fill:url(#linear-gradient-2)" />
</svg>
