<?xml version="1.0" encoding="UTF-8" standalone="no"?>
<svg
   x="0"
   y="0"
   viewBox="0 0 487.5 552"
   xml:space="preserve"
   width="325"
   height="368"
   version="1.1"
   id="svg1"
   sodipodi:docname="unity.svg"
   inkscape:version="1.3.2 (091e20e, 2023-11-25, custom)"
   xmlns:inkscape="http://www.inkscape.org/namespaces/inkscape"
   xmlns:sodipodi="http://sodipodi.sourceforge.net/DTD/sodipodi-0.dtd"
   xmlns="http://www.w3.org/2000/svg"
   xmlns:svg="http://www.w3.org/2000/svg"><defs
     id="defs1" /><sodipodi:namedview
     id="namedview1"
     pagecolor="#ffffff"
     bordercolor="#000000"
     borderopacity="0.25"
     inkscape:showpageshadow="2"
     inkscape:pageopacity="0.0"
     inkscape:pagecheckerboard="0"
     inkscape:deskcolor="#d1d1d1"
     inkscape:zoom="0.56197359"
     inkscape:cx="78.295494"
     inkscape:cy="436.85327"
     inkscape:window-width="1920"
     inkscape:window-height="1009"
     inkscape:window-x="1912"
     inkscape:window-y="-8"
     inkscape:window-maximized="1"
     inkscape:current-layer="svg1" /><style
     id="style29">.st0{fill:#4c4c4c}</style><path
     d="m 243.74999,551.74987 222.99906,-128.74174 -85.0615,-49.4276 -87.36044,50.5771 c -3.44844,2.29895 -6.89689,0 -6.89689,-4.59792 V 300.01384 c 0,-3.44845 2.29896,-6.89689 4.59791,-8.04638 l 103.45316,-59.77293 c 3.44845,-2.29896 6.89689,0 6.89689,4.59792 v 101.15421 l 85.0615,49.42763 V 128.74136 L 243.74999,270.12737 Z"
     id="path35" /><path
     d="M 265.59011,-3.5416622e-4 V 98.854892 L 352.95056,149.432 c 3.44845,2.29896 3.44845,6.89688 0,8.04635 L 249.4974,217.2513 c -3.44844,2.29896 -6.89689,1.14948 -9.19585,0 L 136.84839,157.47835 c -3.44844,-1.14947 -3.44844,-6.89687 0,-8.04635 L 224.20884,98.854892 V -3.5416622e-4 L 0.06032,128.74136 243.74999,270.12737 487.43968,128.74136 Z"
     fill="#808080"
     id="path37" /><path
     class="st0"
     d="m 194.32238,424.15763 -87.36046,-50.5771 -85.06149,49.4276 222.99905,128.74174 V 270.12737 L 0.06032,128.74136 v 257.48344 -1.14949 1.14949 L 85.12181,336.79717 V 235.64298 c 0,-3.44845 4.59792,-5.74741 6.89688,-4.59792 L 195.47184,290.818 c 3.44844,2.29895 4.59793,4.59791 4.59793,8.04635 v 119.54588 c 1.14949,4.5979 -2.29895,8.04635 -5.74739,5.7474 z"
     id="path39" /></svg>
